<svg width="32" height="32" viewBox="0 0 32 32" fill="none" xmlns="http://www.w3.org/2000/svg">
<path d="M17.2468 7.25C18.0598 8.38815 18.4968 9.75188 18.4968 11.1506V12.5C18.9253 12.5 19.3414 12.3568 19.6791 12.0931C20.0168 11.8294 20.2567 11.4605 20.3606 11.0448L20.4968 10.5L20.8663 10.9434C21.4621 11.6583 21.7854 12.561 21.7789 13.4915C21.7725 14.4221 21.4367 15.3202 20.8311 16.0268C20.6041 16.2915 20.4855 16.6322 20.4988 16.9806C20.5122 17.3291 20.6565 17.6596 20.9031 17.9062C21.0407 18.0439 21.2059 18.151 21.3877 18.2205C21.5696 18.29 21.7641 18.3203 21.9584 18.3096C22.1528 18.2988 22.3427 18.2471 22.5158 18.158C22.6889 18.0688 22.8412 17.9441 22.9628 17.7921L23.9968 16.5L24.9968 19C25.4503 20.5115 25.486 22.1177 25.1002 23.6479C24.7144 25.1781 23.9215 26.5753 22.8056 27.6912L22.6795 27.8173C20.9619 29.535 18.6322 30.5 16.2031 30.5H15.1828C13.6011 30.5 12.0464 30.0904 10.67 29.3111C9.29359 28.5318 8.14247 27.4094 7.3287 26.0531C6.35428 24.4291 5.90726 22.5429 6.0492 20.6542C6.19114 18.7656 6.91505 16.9674 8.12127 15.5072L12.169 10.6073C12.5679 10.1244 12.8242 9.53994 12.9093 8.91945C12.9943 8.29897 12.9046 7.66707 12.6503 7.09475C12.3276 6.36877 12.2719 5.55208 12.4932 4.78904C12.7144 4.026 13.1983 3.36575 13.8593 2.925L15.9968 1.5V3.34944C15.9968 4.74812 16.4339 6.11185 17.2468 7.25Z" fill="url(#paint0_linear_1_95)"/>
<path d="M19.689 27.0882L19.6934 27.0838C20.4711 26.3001 21.026 25.3234 21.3009 24.2541C21.5758 23.1848 21.5608 22.0616 21.2575 21L19.8029 22.4546C19.6657 22.5919 19.5027 22.7008 19.3233 22.7751C19.144 22.8494 18.9517 22.8877 18.7576 22.8877C18.5635 22.8877 18.3712 22.8494 18.1919 22.7751C18.0125 22.7008 17.8495 22.5919 17.7123 22.4546C17.4514 22.1938 17.2974 21.8448 17.2807 21.4763C17.2639 21.1078 17.3855 20.7463 17.6217 20.4629C18.108 19.8794 18.4136 19.1667 18.5012 18.4122C18.5887 17.6577 18.4545 16.8941 18.1148 16.2147L15.7575 11.5L15.395 15.4875C15.3515 15.9657 15.2119 16.4303 14.9845 16.8532C14.7571 17.2762 14.4466 17.6488 14.0717 17.9489L12.0109 19.5976C11.4639 20.0352 11.0223 20.5902 10.7188 21.2216C10.4154 21.853 10.2578 22.5445 10.2578 23.2451V23.8125C10.2578 24.4973 10.4084 25.1736 10.6988 25.7938C10.9892 26.4139 11.4125 26.9626 11.9385 27.4009C12.7902 28.1106 13.8665 28.4943 14.975 28.4834L16.4199 28.4691C17.6488 28.4568 18.8234 27.9606 19.689 27.0882Z" fill="#FDD04A"/>
<path d="M7.5 12C7.36739 12 7.24021 11.9473 7.14645 11.8536C7.05268 11.7598 7 11.6326 7 11.5V10.5C7 10.3674 7.05268 10.2402 7.14645 10.1464C7.24021 10.0527 7.36739 10 7.5 10C7.63261 10 7.75979 10.0527 7.85355 10.1464C7.94732 10.2402 8 10.3674 8 10.5V11.5C8 11.6326 7.94732 11.7598 7.85355 11.8536C7.75979 11.9473 7.63261 12 7.5 12Z" fill="#FE691E"/>
<path d="M9 9.5C8.86739 9.5 8.74021 9.44732 8.64645 9.35355C8.55268 9.25979 8.5 9.13261 8.5 9V8C8.5 7.86739 8.55268 7.74021 8.64645 7.64645C8.74021 7.55268 8.86739 7.5 9 7.5C9.13261 7.5 9.25979 7.55268 9.35355 7.64645C9.44732 7.74021 9.5 7.86739 9.5 8V9C9.5 9.13261 9.44732 9.25979 9.35355 9.35355C9.25979 9.44732 9.13261 9.5 9 9.5Z" fill="#FF8D54"/>
<path d="M7 7.5C6.86739 7.5 6.74021 7.44732 6.64645 7.35355C6.55268 7.25979 6.5 7.13261 6.5 7V6C6.5 5.86739 6.55268 5.74021 6.64645 5.64645C6.74021 5.55268 6.86739 5.5 7 5.5C7.13261 5.5 7.25979 5.55268 7.35355 5.64645C7.44732 5.74021 7.5 5.86739 7.5 6V7C7.5 7.13261 7.44732 7.25979 7.35355 7.35355C7.25979 7.44732 7.13261 7.5 7 7.5Z" fill="#FFB895"/>
<path d="M24.5 13.5C24.3674 13.5 24.2402 13.4473 24.1464 13.3536C24.0527 13.2598 24 13.1326 24 13V12C24 11.8674 24.0527 11.7402 24.1464 11.6464C24.2402 11.5527 24.3674 11.5 24.5 11.5C24.6326 11.5 24.7598 11.5527 24.8536 11.6464C24.9473 11.7402 25 11.8674 25 12V13C25 13.1326 24.9473 13.2598 24.8536 13.3536C24.7598 13.4473 24.6326 13.5 24.5 13.5Z" fill="#FE691E"/>
<path d="M23 10C22.8674 10 22.7402 9.94732 22.6464 9.85355C22.5527 9.75979 22.5 9.63261 22.5 9.5V8.5C22.5 8.36739 22.5527 8.24021 22.6464 8.14645C22.7402 8.05268 22.8674 8 23 8C23.1326 8 23.2598 8.05268 23.3536 8.14645C23.4473 8.24021 23.5 8.36739 23.5 8.5V9.5C23.5 9.63261 23.4473 9.75979 23.3536 9.85355C23.2598 9.94732 23.1326 10 23 10Z" fill="#FF8D54"/>
<path d="M25 8.5C24.8674 8.5 24.7402 8.44732 24.6464 8.35355C24.5527 8.25979 24.5 8.13261 24.5 8V6.5C24.5 6.36739 24.5527 6.24021 24.6464 6.14645C24.7402 6.05268 24.8674 6 25 6C25.1326 6 25.2598 6.05268 25.3536 6.14645C25.4473 6.24021 25.5 6.36739 25.5 6.5V8C25.5 8.13261 25.4473 8.25979 25.3536 8.35355C25.2598 8.44732 25.1326 8.5 25 8.5Z" fill="#FFB895"/>
<defs>
<linearGradient id="paint0_linear_1_95" x1="15.6944" y1="1.5" x2="15.6944" y2="30.5" gradientUnits="userSpaceOnUse">
<stop stop-color="#FF9159"/>
<stop offset="0.6875" stop-color="#FF7631"/>
<stop offset="1" stop-color="#FF6A1F"/>
</linearGradient>
</defs>
</svg>
