<svg width="21" height="18" viewBox="0 0 21 18" fill="none" xmlns="http://www.w3.org/2000/svg">
<path d="M0 9C0 4.02944 4.02944 0 9 0H12C16.9706 0 21 4.02944 21 9C21 13.9706 16.9706 18 12 18H9C4.02944 18 0 13.9706 0 9Z" fill="white"/>
<path d="M7.87109 13C7.62175 13 7.39442 12.9413 7.18909 12.824C6.99109 12.6993 6.83342 12.538 6.71609 12.34C6.59875 12.1347 6.54009 11.911 6.54009 11.669V6.422C6.54009 6.17267 6.59875 5.949 6.71609 5.751C6.83342 5.54567 6.99109 5.38433 7.18909 5.267C7.39442 5.14233 7.62175 5.08 7.87109 5.08H13.2061C13.4481 5.08 13.6681 5.14233 13.8661 5.267C14.0714 5.38433 14.2328 5.54567 14.3501 5.751C14.4748 5.949 14.5371 6.17267 14.5371 6.422V11.669C14.5371 11.911 14.4748 12.1347 14.3501 12.34C14.2328 12.538 14.0714 12.6993 13.8661 12.824C13.6681 12.9413 13.4481 13 13.2061 13H7.87109ZM7.55209 12.098H13.2061C13.3234 12.098 13.4224 12.0577 13.5031 11.977C13.5911 11.889 13.6351 11.7863 13.6351 11.669V7.082L7.55209 12.098ZM7.44209 11.009L13.5141 5.993H7.87109C7.75375 5.993 7.65109 6.037 7.56309 6.125C7.48242 6.20567 7.44209 6.30467 7.44209 6.422V11.009Z" fill="#141820"/>
</svg>
