<svg width="170" height="48" viewBox="0 0 170 48" fill="none" xmlns="http://www.w3.org/2000/svg">
<path d="M27.4369 11.9175C22.0163 12.6142 10.5936 9.61559 9.89689 4.19478L9.81662 4.2051C10.3742 8.54366 12.6325 12.483 16.0945 15.1566C19.5566 17.8302 23.9389 19.019 28.2775 18.4616C30.8806 18.127 33.5101 18.8402 35.5875 20.4443C37.6649 22.0484 39.0198 24.4121 39.3544 27.0152C39.6896 29.6182 38.9768 32.2481 37.3731 34.3256C35.7693 36.4034 33.4059 37.7587 30.8029 38.0939C28.1996 38.4289 25.57 37.7161 23.4923 36.1124C21.4147 34.5086 20.0592 32.1452 19.7241 29.5422C19.448 27.3938 18.7514 25.321 17.6741 23.4419C16.5968 21.5629 15.16 19.9143 13.4456 18.5906C11.7312 17.2668 9.77295 16.2936 7.68248 15.7267C5.59203 15.1597 3.41036 15.0101 1.26207 15.2863L1.2723 15.3659C6.69209 14.6693 12.4812 24.9578 13.1801 30.3791L13.179 30.3792C13.5949 33.6148 14.9608 36.6543 17.104 39.1135C19.2473 41.5727 22.0716 43.3412 25.2199 44.1952C28.3683 45.0493 31.6991 44.9507 34.7914 43.9116C37.8836 42.8727 40.5983 40.9401 42.5923 38.3584C44.586 35.7765 45.7696 32.6615 45.9932 29.4069C46.2168 26.1525 45.4701 22.905 43.848 20.0748C42.2258 17.2446 39.8008 14.9591 36.8797 13.5071C33.9584 12.0551 30.6723 11.502 27.4369 11.9175Z" fill="url(#paint0_linear_1_60)"/>
<path d="M57.7872 14.0958V33H53.9955V14.0958H57.7872ZM69.848 17.7792C71.6355 17.7792 73.0799 18.3479 74.1813 19.4854C75.2827 20.6049 75.8334 22.1757 75.8334 24.1979V33H72.0417V24.7125C72.0417 23.5208 71.7438 22.609 71.148 21.9771C70.5521 21.3271 69.7396 21.0021 68.7105 21.0021C67.6632 21.0021 66.8327 21.3271 66.2188 21.9771C65.623 22.609 65.3251 23.5208 65.3251 24.7125V33H61.5334V17.9958H65.3251V19.8646C65.8306 19.2146 66.4716 18.709 67.248 18.3479C68.0424 17.9687 68.9091 17.7792 69.848 17.7792ZM86.3182 21.1104H83.6911V33H79.8453V21.1104H78.1391V17.9958H79.8453V17.2375C79.8453 15.3958 80.3689 14.0417 81.4161 13.175C82.4634 12.3083 84.0432 11.9021 86.1557 11.9563V15.1521C85.2349 15.134 84.5939 15.2875 84.2328 15.6125C83.8717 15.9375 83.6911 16.5243 83.6911 17.3729V17.9958H86.3182V21.1104ZM90.6983 16.2083C90.0303 16.2083 89.4705 16.0007 89.0192 15.5854C88.5858 15.1521 88.3692 14.6194 88.3692 13.9875C88.3692 13.3556 88.5858 12.8319 89.0192 12.4167C89.4705 11.9833 90.0303 11.7667 90.6983 11.7667C91.3664 11.7667 91.9171 11.9833 92.3504 12.4167C92.8018 12.8319 93.0275 13.3556 93.0275 13.9875C93.0275 14.6194 92.8018 15.1521 92.3504 15.5854C91.9171 16.0007 91.3664 16.2083 90.6983 16.2083ZM92.5671 17.9958V33H88.7754V17.9958H92.5671ZM104.628 17.7792C106.415 17.7792 107.86 18.3479 108.961 19.4854C110.063 20.6049 110.613 22.1757 110.613 24.1979V33H106.822V24.7125C106.822 23.5208 106.524 22.609 105.928 21.9771C105.332 21.3271 104.52 21.0021 103.49 21.0021C102.443 21.0021 101.613 21.3271 100.999 21.9771C100.403 22.609 100.105 23.5208 100.105 24.7125V33H96.3133V17.9958H100.105V19.8646C100.61 19.2146 101.251 18.709 102.028 18.3479C102.822 17.9687 103.689 17.7792 104.628 17.7792ZM116.142 16.2083C115.474 16.2083 114.914 16.0007 114.463 15.5854C114.029 15.1521 113.813 14.6194 113.813 13.9875C113.813 13.3556 114.029 12.8319 114.463 12.4167C114.914 11.9833 115.474 11.7667 116.142 11.7667C116.81 11.7667 117.361 11.9833 117.794 12.4167C118.245 12.8319 118.471 13.3556 118.471 13.9875C118.471 14.6194 118.245 15.1521 117.794 15.5854C117.361 16.0007 116.81 16.2083 116.142 16.2083ZM118.011 17.9958V33H114.219V17.9958H118.011ZM125.223 29.8854H131.913V33H120.917V29.9396L127.471 21.1104H120.944V17.9958H131.832V21.0563L125.223 29.8854ZM133.874 25.4437C133.874 23.9271 134.172 22.5819 134.768 21.4083C135.381 20.2347 136.203 19.3319 137.232 18.7C138.279 18.0681 139.444 17.7521 140.726 17.7521C141.845 17.7521 142.82 17.9778 143.651 18.4292C144.5 18.8806 145.177 19.4493 145.682 20.1354V17.9958H149.501V33H145.682V30.8063C145.195 31.5104 144.518 32.0972 143.651 32.5667C142.802 33.0181 141.818 33.2438 140.699 33.2438C139.435 33.2438 138.279 32.9188 137.232 32.2688C136.203 31.6188 135.381 30.7069 134.768 29.5333C134.172 28.3417 133.874 26.9785 133.874 25.4437ZM145.682 25.4979C145.682 24.5771 145.502 23.7917 145.14 23.1417C144.779 22.4736 144.292 21.9681 143.678 21.625C143.064 21.2639 142.405 21.0833 141.701 21.0833C140.997 21.0833 140.347 21.2549 139.751 21.5979C139.155 21.941 138.668 22.4465 138.288 23.1146C137.927 23.7646 137.747 24.541 137.747 25.4437C137.747 26.3465 137.927 27.141 138.288 27.8271C138.668 28.4951 139.155 29.0097 139.751 29.3708C140.365 29.7319 141.015 29.9125 141.701 29.9125C142.405 29.9125 143.064 29.741 143.678 29.3979C144.292 29.0368 144.779 28.5312 145.14 27.8812C145.502 27.2132 145.682 26.4188 145.682 25.4979ZM155.127 16.2083C154.459 16.2083 153.899 16.0007 153.448 15.5854C153.015 15.1521 152.798 14.6194 152.798 13.9875C152.798 13.3556 153.015 12.8319 153.448 12.4167C153.899 11.9833 154.459 11.7667 155.127 11.7667C155.795 11.7667 156.346 11.9833 156.779 12.4167C157.231 12.8319 157.456 13.3556 157.456 13.9875C157.456 14.6194 157.231 15.1521 156.779 15.5854C156.346 16.0007 155.795 16.2083 155.127 16.2083ZM156.996 17.9958V33H153.204V17.9958H156.996Z" fill="white"/>
<path d="M169.498 26.4893H164V31.9871H169.498V26.4893Z" fill="#3BAAFB"/>
<defs>
<linearGradient id="paint0_linear_1_60" x1="16.303" y1="9.70575" x2="49.2901" y2="47.6409" gradientUnits="userSpaceOnUse">
<stop stop-color="#57B8FF"/>
<stop offset="0.940625" stop-color="#038EF2"/>
<stop offset="1" stop-color="white" stop-opacity="0"/>
</linearGradient>
</defs>
</svg>
